<svg width="57" height="53" viewBox="0 0 57 53" fill="none" xmlns="http://www.w3.org/2000/svg">
<path d="M50.2232 0H6.02679C2.6995 0 0 2.50753 0 5.59821V46.6518C0 49.7425 2.6995 52.25 6.02679 52.25H50.2232C53.5505 52.25 56.25 49.7425 56.25 46.6518V5.59821C56.25 2.50753 53.5505 0 50.2232 0ZM34.8172 44.7507C33.7626 44.9257 33.3733 44.3192 33.3733 43.8177C33.3733 43.1879 33.3984 39.9689 33.3984 37.3681C33.3984 35.5487 32.7455 34.394 31.9796 33.7876C36.6253 33.3094 41.522 32.7146 41.522 25.2619C41.522 23.1393 40.7059 22.078 39.375 20.7134C39.5884 20.2119 40.3041 18.1475 39.1615 15.4651C37.4163 14.9636 33.4235 17.5527 33.4235 17.5527C31.7662 17.1212 29.9707 16.8996 28.2003 16.8996C26.43 16.8996 24.6345 17.1212 22.9771 17.5527C22.9771 17.5527 18.9844 14.9636 17.2391 15.4651C16.0965 18.1359 16.7997 20.2002 17.0257 20.7134C15.6948 22.078 15.067 23.1393 15.067 25.2619C15.067 32.6796 19.7503 33.3094 24.3959 33.7876C23.7932 34.2891 23.2533 35.1521 23.065 36.3884C21.8722 36.8899 18.8211 37.753 17.0006 34.7672C15.858 32.9245 13.7988 32.7729 13.7988 32.7729C11.7648 32.7496 13.6607 33.9625 13.6607 33.9625C15.0167 34.5456 15.971 36.7849 15.971 36.7849C17.1889 40.2488 23.0148 39.0825 23.0148 39.0825C23.0148 40.7037 23.0399 43.3395 23.0399 43.8177C23.0399 44.3192 22.6632 44.9257 21.596 44.7507C13.3092 42.1732 7.50837 34.8489 7.50837 26.2883C7.50837 15.5817 16.3225 7.45262 27.8488 7.45262C39.375 7.45262 48.7165 15.5817 48.7165 26.2883C48.7291 34.8489 43.1041 42.1849 34.8172 44.7507ZM22.5 37.6247C22.2614 37.6713 22.0354 37.578 22.0103 37.4264C21.9852 37.2514 22.1484 37.0998 22.387 37.0532C22.6256 37.0299 22.8516 37.1232 22.8767 37.2748C22.9143 37.4264 22.7511 37.578 22.5 37.6247ZM21.3072 37.5197C21.3072 37.6713 21.1189 37.7996 20.8677 37.7996C20.5915 37.8229 20.4032 37.6946 20.4032 37.5197C20.4032 37.3681 20.5915 37.2398 20.8426 37.2398C21.0812 37.2165 21.3072 37.3448 21.3072 37.5197ZM19.5871 37.3914C19.5368 37.543 19.2857 37.613 19.0723 37.543C18.8337 37.4964 18.6705 37.3214 18.7207 37.1698C18.7709 37.0182 19.022 36.9482 19.2355 36.9949C19.4866 37.0648 19.6498 37.2398 19.5871 37.3914ZM18.0427 36.7616C17.9297 36.8899 17.6911 36.8666 17.5028 36.6916C17.3145 36.54 17.2642 36.3184 17.3898 36.2134C17.5028 36.0852 17.7414 36.1085 17.9297 36.2834C18.0929 36.435 18.1557 36.6683 18.0427 36.7616ZM16.9001 35.7003C16.7871 35.7703 16.5737 35.7003 16.4355 35.5253C16.2974 35.3504 16.2974 35.1521 16.4355 35.0705C16.5737 34.9655 16.7871 35.0472 16.9001 35.2221C17.0382 35.397 17.0382 35.607 16.9001 35.7003ZM16.084 34.569C15.971 34.6739 15.7826 34.6156 15.6445 34.499C15.5064 34.3474 15.4813 34.1724 15.5943 34.0908C15.7073 33.9858 15.8956 34.0441 16.0338 34.1608C16.1719 34.3124 16.197 34.4873 16.084 34.569ZM15.2427 33.7059C15.1925 33.8109 15.0293 33.8342 14.8912 33.7526C14.728 33.6826 14.6526 33.5543 14.7028 33.4493C14.7531 33.3794 14.8912 33.3444 15.0544 33.4027C15.2176 33.4843 15.293 33.6126 15.2427 33.7059Z" fill="black"/>
</svg>
